<?xml version="1.0" standalone="no"?>
<!DOCTYPE svg PUBLIC "-//W3C//DTD SVG 20010904//EN"
 "http://www.w3.org/TR/2001/REC-SVG-20010904/DTD/svg10.dtd">
<svg version="1.0" xmlns="http://www.w3.org/2000/svg"
 width="180.000000pt" height="180.000000pt" viewBox="0 0 180.000000 180.000000"
 preserveAspectRatio="xMidYMid meet">
<metadata>
Created by potrace 1.14, written by Peter Selinger 2001-2017
</metadata>
<g transform="translate(0.000000,180.000000) scale(0.100000,-0.100000)"
fill="#000000" stroke="none">
<path d="M553 1440 c-21 -27 -48 -51 -60 -54 -14 -4 -25 -16 -28 -34 -3 -15
-9 -44 -14 -64 -9 -41 3 -59 45 -72 18 -6 22 -16 27 -69 3 -45 1 -65 -9 -73
-17 -13 -19 -129 -4 -220 6 -34 14 -101 19 -150 7 -71 13 -91 30 -105 22 -18
23 -27 44 -217 7 -62 20 -68 166 -76 72 -4 190 -4 262 0 146 8 159 14 166 76
21 190 22 199 44 217 17 14 23 34 30 105 5 49 13 116 19 150 5 33 10 96 10
139 0 64 -3 77 -16 77 -13 0 -15 7 -10 31 3 17 6 49 6 70 0 33 4 40 24 45 39
9 59 37 47 65 -5 13 -12 41 -16 61 -4 28 -12 39 -28 44 -12 3 -39 27 -60 54
l-37 49 -310 0 -310 0 -37 -49z m673 -26 l34 -41 -360 0 -361 0 18 21 c57 68
22 62 344 62 l291 -1 34 -41z m77 -74 c2 -3 7 -24 11 -46 l6 -41 -52 -7 c-67
-9 -671 -9 -739 0 -45 6 -50 9 -45 28 3 12 6 31 6 43 0 20 6 22 63 26 91 5
745 2 750 -3z m-48 -147 c-2 -10 -7 -39 -10 -65 l-6 -48 -339 0 -339 0 -6 48
c-3 26 -8 55 -10 65 -3 16 19 17 355 17 336 0 358 -1 355 -17z m-333 -230 c39
-35 7 -93 -51 -93 -29 0 -61 26 -61 51 0 24 15 32 42 23 l23 -7 -24 -8 c-29
-11 -22 -34 10 -34 24 0 59 21 59 36 0 20 -35 39 -71 39 -52 0 -85 -18 -136
-75 -38 -43 -44 -46 -84 -43 -23 2 -44 8 -46 13 -2 7 12 9 35 7 36 -4 42 0 77
43 44 54 65 67 120 75 44 7 80 -3 107 -27z m88 12 c10 -11 9 -18 -4 -30 -14
-15 -18 -14 -38 4 -18 18 -19 21 -5 21 9 0 17 5 17 10 0 15 16 12 30 -5z m175
-85 c49 -46 19 -103 -72 -134 -69 -23 -150 -20 -231 9 -38 14 -84 25 -101 25
-17 0 -31 5 -31 10 0 18 58 11 126 -15 102 -38 201 -32 275 18 69 47 30 103
-65 93 -51 -6 -76 -19 -76 -42 0 -17 31 -19 47 -3 8 8 13 8 17 0 22 -35 -54
-44 -78 -9 -11 15 -12 26 -5 40 15 28 47 38 111 35 44 -3 64 -9 83 -27z m-395
-16 c11 -12 11 -18 -1 -29 -12 -12 -17 -12 -33 0 -15 12 -16 16 -5 29 18 19
24 20 39 0z m-86 -113 c12 -28 14 -45 7 -58 -5 -10 -12 -26 -15 -36 -7 -21
-26 -13 -26 10 0 9 -7 24 -15 33 -14 15 -14 18 0 30 8 7 15 23 15 36 0 36 14
29 34 -15z m234 -44 c7 -8 6 -18 -4 -31 -14 -19 -14 -19 -28 -1 -10 14 -11 22
-2 31 14 17 21 17 34 1z m242 -164 c0 -15 -5 -66 -11 -114 -11 -87 -12 -87
-43 -93 -40 -7 -412 -7 -452 0 -31 6 -32 6 -43 93 -6 48 -11 98 -11 112 l0 24
280 2 280 2 0 -26z"/>
</g>
</svg>
